<svg version="1.1" xmlns="http://www.w3.org/2000/svg" xmlns:xlink="http://www.w3.org/1999/xlink" width="30px" height="30px" viewBox="0,0,256,256"><g fill="#ffffff" fill-rule="nonzero" stroke="none" stroke-width="1" stroke-linecap="butt" stroke-linejoin="miter" stroke-miterlimit="10" stroke-dasharray="" stroke-dashoffset="0" font-family="none" font-weight="none" font-size="none" text-anchor="none" style="mix-blend-mode: normal"><g transform="scale(8.53333,8.53333)"><path d="M18.98438,-0.01367c-0.55152,0.00862 -0.99193,0.46214 -0.98437,1.01367v1h-1c-0.36064,-0.0051 -0.69608,0.18438 -0.87789,0.49587c-0.18181,0.3115 -0.18181,0.69676 0,1.00825c0.18181,0.3115 0.51725,0.50097 0.87789,0.49587h1v1c-0.0051,0.36064 0.18438,0.69608 0.49587,0.87789c0.3115,0.18181 0.69676,0.18181 1.00825,0c0.3115,-0.18181 0.50097,-0.51725 0.49587,-0.87789v-1h1c0.36064,0.0051 0.69608,-0.18438 0.87789,-0.49587c0.18181,-0.3115 0.18181,-0.69676 0,-1.00825c-0.18181,-0.3115 -0.51725,-0.50097 -0.87789,-0.49587h-1v-1c0.0037,-0.2703 -0.10218,-0.53059 -0.29351,-0.72155c-0.19133,-0.19097 -0.45182,-0.29634 -0.72212,-0.29212zM12.39063,3.29297c-5.371,1.193 -9.39062,5.97703 -9.39062,11.70703c0,6.627 5.373,12 12,12c5.73,0 10.51403,-4.01963 11.70703,-9.39062c-1.536,0.88 -3.31003,1.39063 -5.20703,1.39063c-5.799,0 -10.5,-4.701 -10.5,-10.5c0,-1.897 0.51062,-3.67103 1.39063,-5.20703zM25,7c-0.552,0 -1,0.448 -1,1v1c0,0.552 -0.448,1 -1,1h-1c-0.552,0 -1,0.448 -1,1c0,0.552 0.448,1 1,1h1c0.552,0 1,0.448 1,1v1c0,0.552 0.448,1 1,1c0.552,0 1,-0.448 1,-1v-1c0,-0.552 0.448,-1 1,-1h1c0.552,0 1,-0.448 1,-1c0,-0.552 -0.448,-1 -1,-1h-1c-0.552,0 -1,-0.448 -1,-1v-1c0,-0.552 -0.448,-1 -1,-1z"></path></g></g></svg>